<svg id="Layer_1" data-name="Layer 1" xmlns="http://www.w3.org/2000/svg" viewBox="0 0 39.42 25.66"><defs><style>.cls-1{fill:none;stroke:#fff;stroke-miterlimit:10;stroke-width:3px;}</style></defs><title>mobile-nav</title><path class="cls-1" d="M-218.52-306.58c-4.64,0-10.87,2.84-15.48,2.82s-5.21-2.83-9.85-2.82c-4.15,0-9.72,3.23-14,3" transform="translate(257.93 308.08)"/><path class="cls-1" d="M-218.52-296.78c-4.64,0-10.87,2.84-15.48,2.82s-5.21-2.83-9.85-2.82c-4.15,0-9.72,3.23-14,3" transform="translate(257.93 308.08)"/><path class="cls-1" d="M-218.52-287c-4.64,0-10.87,2.84-15.48,2.82s-5.21-2.83-9.85-2.82c-4.15,0-9.72,3.23-14,3" transform="translate(257.93 308.08)"/></svg>